<svg width="35" height="35" viewBox="0 0 35 35" fill="none" xmlns="http://www.w3.org/2000/svg">
<g clip-path="url(#clip0_228_10)">
<path fill-rule="evenodd" clip-rule="evenodd" d="M17.5 28.4375C16.2225 28.4375 14.9888 28.2887 13.8031 28.0361L8.65375 31.1314L8.72265 26.0575C4.77531 23.6841 2.1875 19.7597 2.1875 15.3125C2.1875 8.06422 9.04313 2.1875 17.5 2.1875C25.9569 2.1875 32.8125 8.06422 32.8125 15.3125C32.8125 22.5619 25.9569 28.4375 17.5 28.4375ZM17.5 0C7.83562 0 0 6.85672 0 15.3125C0 20.1458 2.56484 24.4497 6.5625 27.2552V35L14.2286 30.3483C15.2895 30.5233 16.3811 30.625 17.5 30.625C27.1644 30.625 35 23.7694 35 15.3125C35 6.85672 27.1644 0 17.5 0Z" fill="#1AAED1"/>
</g>
<defs>
<clipPath id="clip0_228_10">
<rect width="35" height="35" fill="white"/>
</clipPath>
</defs>
</svg>
