<svg width="27" height="24" viewBox="0 0 27 24" fill="none" xmlns="http://www.w3.org/2000/svg">
<path d="M12.6101 11.9187H3.74117M3.48978 13.0481L2.02451 17.3001C1.22199 19.6288 0.820725 20.7932 1.10869 21.5101C1.35875 22.1329 1.89584 22.6049 2.55858 22.7847C3.32174 22.9916 4.4744 22.4876 6.77974 21.48L21.5591 15.0193C23.8093 14.0355 24.9344 13.5438 25.282 12.8605C25.5842 12.267 25.5842 11.5704 25.282 10.9768C24.9344 10.2937 23.8093 9.80182 21.5591 8.81816L6.75425 2.34637C4.45585 1.34165 3.30667 0.83929 2.54427 1.04537C1.88216 1.22434 1.34513 1.69517 1.09419 2.3167C0.805237 3.03239 1.20221 4.19424 1.99617 6.51794L3.49262 10.8978C3.62898 11.2968 3.69717 11.4964 3.72408 11.7004C3.74796 11.8816 3.74772 12.0649 3.72336 12.246C3.6959 12.45 3.6272 12.6493 3.48978 13.0481Z" stroke="#1AAED1" stroke-width="2" stroke-linecap="round" stroke-linejoin="round"/>
</svg>
